# xmcd
#
# Track frame offsets:
#       150
#       8697
#       21712
#       33762
#       47122
#       56397
#       63502
#       73797
#       81732
#       92962
#       102097
#       112785
#       122107
#       134935
#
# Disc length: 1899 seconds
#
# Revision: 1
# Processed by: cddbd v1.4PL0 Copyright (c) Steve Scherf et al.
# Submitted via: MusiCat 1.1
#
DISCID=c807690e
DTITLE=The Jet Blacks - O Melhor de Jet Blacks
DYEAR=1900
DGENRE=
TTITLE0=Stick Shift
TTITLE1=Apache
TTITLE2=Bulldog
TTITLE3=The Phantomas
TTITLE4=Hava Naguila
TTITLE5=Ten Green Bottles
TTITLE6=Love Boat
TTITLE7=Torquay
TTITLE8=Wiggle Beat
TTITLE9=King Neptune's Guitar
TTITLE10=The Twist
TTITLE11=Peace Pipe
TTITLE12=Theme For Young Lovers
TTITLE13=Ginchy
EXTD=0\n\n\n
EXTT0=
EXTT1=
EXTT2=
EXTT3=
EXTT4=
EXTT5=
EXTT6=
EXTT7=
EXTT8=
EXTT9=
EXTT10=
EXTT11=
EXTT12=
EXTT13=
PLAYORDER=
